<?xml version="1.0" encoding="UTF-8"?><svg id="Layer_2" xmlns="http://www.w3.org/2000/svg" viewBox="0 0 479.08 513.19"><defs><style>.cls-1{fill:#09b4ba;}.cls-2{fill:#fff;}</style></defs><g id="Layer_1-2"><rect class="cls-1" x="-17.05" y="17.05" width="513.19" height="479.08" rx="156.5" ry="156.5" transform="translate(-17.05 496.13) rotate(-90)"/><path class="cls-2" d="M213.37,89.11c33.9,4.58,56.15,36.85,48.11,70.17-1.47,6.08-1.96,11.85.84,17.84l4.24,9.05c7.08,15.12,9.64,31.51,5.79,47.89-.67,2.87-3.52,4.36-5.79,3.98-2.93-.49-5.02-3.05-4.32-6.12,2.88-12.62,2.09-25.57-3.39-37.36l-4.89-10.53c-4.16-8.94-5.06-17.52-2.62-27.1,6.81-26.73-11.86-55.04-39.91-57.11-12.09-.89-23.9-.79-35.97-.07-28.46,1.7-47.57,30.25-40.66,57.35,1.97,7.72,2.45,15.35-.83,22.61l-5.94,13.15c-5.53,12.24-7.26,25.46-4.17,38.56.71,3.03-1.31,5.74-3.73,6.28-2.72.6-5.55-.63-6.25-3.53-3.74-15.44-1.86-31.25,4.68-45.66l5.76-12.71c2.17-4.79,1.98-10.24.66-15.18-9.06-33.93,13.86-67.16,48.18-71.55l40.22.05Z"/><path class="cls-2" d="M327.07,416.5c0,4.63-3.93,7.63-8.4,7.63H75.08c-4.9,0-8.25-3.56-8.25-8.07v-29.51c.01-4.73,3.58-7.75,8.12-7.75h44.09s-7.42-82.08-7.42-82.08c-.74-8.23,4.7-15.68,13.51-15.68l136.15-.02c7.78,0,14.54,6.24,13.82,14.25l-7.46,83.53,52.48.04c4.02,0,6.95,3.95,7,7.63l-.05,30.03ZM254.18,378.66c2.02-.47,2.8-1.27,3.35-2.68l7.27-80.9c.17-1.91-1.5-3.51-3.54-3.74H125.16c-1.95.36-3.43,1.93-3.25,3.89l7.22,80.33c.14,1.56,1.69,3.09,3.35,3.09h121.69ZM316.72,389.11l-60.59.14h-125.11s-53.88-.13-53.88-.13l.04,24.53h239.64s-.1-24.54-.1-24.54Z"/><path class="cls-2" d="M230.06,246.71c-23.24,10.13-49.74,10.75-73.63.09l-31.07,14.03c-10.36,4.68-18.15,13.54-19.99,25.11l-10.02,62.94c-.81,5.11.85,9.5,3.95,13.34,1.76,2.19,1.33,5.44-.6,7.12-2.12,1.83-5.4,2-7.51-.62-4.3-5.32-7.38-12.34-6.23-19.63l10.43-65.94c2.38-15.05,13.18-26.1,26.6-32.3l37.33-17.24c5.15-2.38,5.19-10.33,4.12-14.91-11.49-9.27-17.82-22.29-17.87-36.99l-.07-19.94c0-2.69,1.85-4.87,4.48-5.26,18.05-2.65,34.52-11.18,46.32-25.07l9.92-11.69c.86-1.01,3.64-1.56,5.14-1.18,1.37.35,3.16,2.3,3.65,4.06,2.92,10.61,10.98,18.24,21.77,20.46,1.53.31,3.61,2.51,3.61,4.07l-.15,37.42c-.05,13.48-7.24,25.4-17.27,33.95l-.34,5.15c-.34,5.18,2.3,9.27,6.83,11.34l37.99,17.38c12.22,5.59,21.43,17.16,23.58,30.6l10.36,64.9c1.25,7.83-1.39,15.52-6.54,21.24-1.97,2.19-5.27,1.86-7.06.24-5.88-5.31,4.99-9.71,3.4-19.77l-9.76-61.79c-1.58-12.24-9.11-22.17-20.36-26.95l-30.99-14.17ZM230.05,180.31l-.05-28.18c-9.57-3.35-16.93-9.46-21.92-18.54-13.02,16.94-31.07,28.34-52.21,32.48-.06,6.25-.23,11.86.15,17.9,1.29,20.4,18.88,35.68,38.69,34.72,20.06-.97,36.03-17.96,35.33-38.38ZM167.93,240.23c16.48,5.23,33.7,5.39,50.45-.18-3.94-4.35-5.93-9.14-6.25-14.94-12.36,5.32-25.4,5.22-37.79.28-.57,6.08-2.46,10.37-6.41,14.84Z"/><path class="cls-2" d="M288.14,205.2l16.81-.04c2.06,0,4.37,3.22,4.05,5.22l-5.23,33.13,50.7-38.26,28.27-.19c10.96-.07,19.38-8.69,19.36-19.64l-.12-67.07c-.02-9.71-8.47-18.3-18.38-18.31l-117.74-.12c-2.88,0-4.41-3.52-4.26-5.37.25-3.05,2.34-4.92,5.71-4.92l119.71.03c13.98,2.74,25.24,13.51,25.23,27.98l-.03,69.99c0,15.76-13.97,27.78-29.14,27.78h-24.73s-59.09,44.68-59.09,44.68c-1.6,1.21-4.22,1.15-5.74.38-1.29-.66-2.8-3.19-2.51-4.93l6.67-40.02-8.4-.06c-2.73-.02-4.77-1.75-5.37-4.29-.48-2.03,1.08-5.96,4.24-5.97Z"/></g></svg>