<?xml version="1.0" encoding="UTF-8"?><svg id="Layer_2" xmlns="http://www.w3.org/2000/svg" viewBox="0 0 479.08 513.19"><defs><style>.cls-1{fill:#fff;}.cls-2{fill:#4b245e;}</style></defs><g id="Layer_1-2"><rect class="cls-2" x="-17.05" y="17.05" width="513.19" height="479.08" rx="156.5" ry="156.5" transform="translate(-17.05 496.13) rotate(-90)"/><path class="cls-1" d="M376.43,426.54h-246.28c-.87-1.36-2.32-3.6-2.31-5.09,0-1.74,1.7-3.6,3.45-4.31l50.6-.03,16.97-51.55h-86.47c-6.67-.23-13.06-5.12-13.07-12.04l-.06-41.43c0-2.15,3.31-3.48,4.87-3.4,1.98.1,4.47,1.59,4.48,4.07l.03,39.19c0,1.87,1.47,4.19,3.93,4.19h271.95c2.59,0,4.45-1.84,4.45-4.05l.07-32.79c0-2.4,3.33-4.15,5.26-3.85,1.92.3,4.17,2.26,4.16,4.48l-.08,32.68c-.02,7.45-6.3,13.05-13.72,12.94l-85.97.03,17.01,51.55h60.24c1.88.8,3.69,3.17,3.27,4.99-.29,1.26-1.44,3.1-2.76,4.42ZM305.65,417.13l-17.02-51.56-79.71-.02-17.02,51.58h113.75Z"/><path class="cls-1" d="M67.23,286.57c-.02,6.79,4.93,11.7,11.4,11.7h55.74c5.73,0,11.3-4.37,11.3-10.68v-137.11c0-6.5-5.61-10.86-11.48-10.87h-55.4c-6.19,0-11.18,4.42-11.44,10.72-.13,3.03-2.03,5.03-4.79,5.04-3.07.01-4.98-2.31-4.79-5.58.68-11.2,9.48-19.6,20.83-19.6h55.8c10.85,0,20.66,8.31,20.66,19.7v138.27c-.01,11.9-10.4,19.63-21.44,19.63h-54.25c-11.63,0-21.49-8.16-21.52-20.25l-.06-28.78c0-2.51,2.64-4.53,4.7-4.49,2.86.06,4.8,2.25,4.79,5.2l-.06,27.11Z"/><path class="cls-1" d="M109.9,243.13c.03,2.3-1.55,5-3.54,6.01-2.01,1.02-5.05.51-6.86-1.07l-17.04-14.87-35.3-.15c-6.03-.03-13.08-3.37-13.11-10.56l-.19-40.67c-.04-7.85,5.82-12.77,13.41-12.71l63.35.49c4.93.04,9.7,5.93,9.71,10.46l.12,40.17c.02,6.59-4.14,11.9-10.68,12.96l.13,9.94ZM100.6,228.43c.21-5.81,7.5-4.15,9.43-5.35.59-.36.96-1.97.96-2.82v-38.57c0-1.7-1.71-2.83-3.34-2.84l-61.21-.29c-1.53,0-3.18,1.67-3.18,3.16l.24,41.75,42.39.32,14.43,12.19.27-7.55Z"/><path class="cls-1" d="M397.27,208.94c26.27-.96,47.08,19.6,47.94,44.66.87,25.63-19.1,46.87-44.59,47.84-25.29.96-46.8-18.83-47.93-44.03-1.15-25.4,18.28-47.51,44.59-48.47ZM392.53,218.98c-20.61,3.71-33.26,23.17-29.84,42.51,3.55,20.07,22.82,33.47,42.58,29.94,19.79-3.53,33.31-22.49,29.98-42.15-3.36-19.88-22.04-34.02-42.72-30.3Z"/><path class="cls-1" d="M301.64,302.68c-16.82-.8-32.51-4.12-47.1-11.06-16.02-7.62-23.2-25.49-15.74-41.57,5.52-11.9,18.87-16.7,31.41-12.11,4.44-13.29,17.03-20.31,30.42-16.67,11.8,3.21,20.29,13.35,22.13,25.54.95,19.26-9.96,39.24-21.11,55.87ZM252.39,279.06c13.02,9.18,28.95,11.99,44.28,14.01,7.15-11.37,12.98-22.83,16.05-35.8,2.93-12.4-3.71-24.79-16.39-27.19-8.96-1.7-16.15,4.72-17.79,13.61-.35,1.9-1.64,4.54-3.05,5.17-1.47.65-4.3.09-5.77-.73-6.72-3.73-15.07-3.42-20.07,2.66-6.93,8.44-5.17,20.67,2.74,28.28Z"/><path class="cls-1" d="M257.34,211.23l-50.88-30.91c-2.95-1.79-3.7-5.71-2.9-8.84.73-2.86,3.68-5.4,7.2-5.77,7.18-.76,12.63-4.99,15.24-11.57,5.66-14.25,20.98-20.95,35.15-15.39l3.81-5.53c1.22-1.77,4.76-2.12,6.47-1,1.96,1.28,2.6,4.58,1.3,6.53l-3.46,5.16c11.05,10.02,11.51,26.34,2.01,37.44-10.69,12.49,1.14,21.06-4.87,27.81-1.63,1.83-5.95,3.94-9.07,2.05ZM257.46,200.14c-1.58-10.55.83-18.2,6.67-25.15,3.66-4.35,5.28-9.84,3.9-15.55-1.08-4.48-4.4-8.62-9.23-11.2-9.21-4.92-20.1-.35-23.92,9.36-3.37,8.57-10.03,14.39-19.36,17.11l41.94,25.42Z"/><path class="cls-1" d="M393.25,144.55l-7.6,9.12c-2.81,3.37-6.83,4.46-11.2,3.48-3.66-.83-6.66-4.15-7.66-8.48l-2.48-10.76-11.33-4.54c-3.72-1.49-5.96-5.12-6.32-8.89-.33-3.45,1.34-7.78,4.6-9.73l10.57-6.33.72-11.43c.26-4.15,2.6-7.6,5.73-9.12,3.58-1.75,8.24-1.76,11.32.87l9.53,8.14,11.33-2.84c3.96-.99,8.02.24,10.53,3.01,2.34,2.57,3.83,7,2.34,10.61l-4.79,11.59,6.66,10.83c2.05,3.33,1.39,7.83-.46,10.72-2.2,3.45-6.09,5.23-10.42,4.82l-11.07-1.05ZM406.14,133.35l-7.3-11.37c-.67-1.04-.25-3.78.22-4.98l5.47-13.9-16.11,3.75c-1.01.23-3.29-.8-4.13-1.52l-11.83-10.04-1.62,18.55-15.53,9.92,16.92,7.16,4.69,17.87,11.88-13.8,15.46.99c.58.04,1.76-.22,2.18-.37s.03-1.78-.28-2.26Z"/><path class="cls-1" d="M388.99,192.67v-11.84c0-2.18-1.92-4.16-4.32-4.16l-87.53-.03c-2.08,0-3.63-3.21-3.58-4.75.06-1.91,1.69-4.64,4.34-4.65l86.73-.03c7.54,0,13.72,5.38,13.76,13.07l.07,12.37c.01,2.56-2.52,4.68-4.72,4.68-2.44,0-4.74-2.02-4.74-4.68Z"/><path class="cls-1" d="M186.98,176.51l-22,.19c-2.25.02-4.09-2.85-4.05-4.71.06-2.73,2.05-4.75,4.91-4.75h19.49c1.94,0,4.01,1.83,4.61,3.38.59,1.53-.7,5.87-2.95,5.89Z"/><path class="cls-1" d="M414.78,260.18c.92-2.9,2.91-4.49,5.5-4.26,2.34.2,4.81,2.93,4.09,5.7-2.99,11.42-13.26,19.09-24.48,19.46-11.85.39-22.52-6.92-26.14-18.53-.9-2.88.29-5.53,3.16-6.5,1.73-.58,4.9.51,5.68,2.99,2.22,7.13,8.12,12.09,15.11,12.54,7.36.47,14.66-3.74,17.09-11.4Z"/><path class="cls-1" d="M390.51,245.7c0,2.51-3.29,4.05-5.37,3.67s-4.11-2.55-4.04-4.85l.19-6.04c.06-1.87,2.76-3.61,4.57-3.68,1.68-.06,4.66,1.71,4.66,3.51v7.39Z"/><path class="cls-1" d="M416.57,245.89c.04,1.47-2.71,3.48-4.09,3.57-1.68.11-4.82-1.39-5.01-3.3-.3-2.95-.27-5.81.13-8.68.18-1.28,2.93-2.63,4.17-2.7,1.4-.08,4.55,1.41,4.59,2.9l.21,8.21Z"/></g></svg>