<?xml version="1.0" encoding="UTF-8"?><svg id="Layer_2" xmlns="http://www.w3.org/2000/svg" viewBox="0 0 479.08 513.19"><defs><style>.cls-1{fill:#d64b95;}.cls-2{fill:#fff;stroke:#fff;stroke-miterlimit:10;stroke-width:5.89px;}</style></defs><g id="Layer_1-2"><rect class="cls-1" x="-17.05" y="17.05" width="513.19" height="479.08" rx="156.5" ry="156.5" transform="translate(-17.05 496.13) rotate(-90)"/><path class="cls-2" d="M264.92,435.38l-49.26.13c-19.74.05-37.62-2.54-42.99-23.21-4.22-22.04,1.97-44.95,16.76-61.92,9.11-10.24,20-17.3,34-21.18-17.17-8.16-26.25-26.02-22.29-44.4,3.8-17.66,19.6-30.54,37.75-30.76,18.32-.22,34.39,12.21,38.64,29.95,4.35,18.16-4.35,36.79-21.93,45.07,36.5,9.89,57.38,45.8,51.44,81.96-4.72,20.7-21.88,24.31-42.12,24.36ZM235.29,260.91c-18.48,2.4-30.56,19.23-28.21,36.66,2.4,17.8,18.74,30.29,36.3,28.07,17.95-2.27,30.79-18.69,28.38-36.63-2.33-17.4-18.19-30.47-36.48-28.1ZM264.92,428.84c16.28-.04,32.65-2.48,35.59-19.13,3.89-22.1-4.03-44.96-20.48-60.04-22.34-20.48-55.59-21.26-78.74-1.67-17.83,15.08-26.45,38.95-22.31,62.04,3.05,17.04,20.19,18.96,36.15,18.92l49.8-.12Z"/><path class="cls-2" d="M319.74,161.3c-16.15,28-49.54,52.49-77.1,69.42-2.26,1.39-4.03,1.47-6.3.07-29.31-18-77.2-52.42-83.85-86.84-4.74-24.52,6.91-51.33,29.81-62.07,20.76-9.74,42.74-1.77,57.05,16.13,4.17-4.54,8.27-8.77,13.36-12.25,14.94-10.24,33.68-10.78,49.08-1.06,13.05,8.23,21.42,21.51,24.46,36.65,2.82,14.05.64,27.57-6.5,39.96ZM307.14,168.5c4.97-7.2,9.65-13.93,11.94-22.32,5.12-18.74-1.04-39.41-15.53-52.03-13.2-11.5-31.1-13.1-45.67-3.89-11.78,7.44-15.32,16.55-18.36,16.61-3.27.07-6.94-9.52-19.24-17.02-13.84-8.44-30.6-7.11-43.37,2.98-13.31,10.51-19.74,26.83-18.82,43.96.48,8.91,3.95,16.7,8.55,24.32,6.58,10.3,14.49,18.95,23.53,27.33,15.03,13.93,31.44,25.56,49.2,36.47,24.7-15.2,49.5-33.21,67.76-56.41Z"/><path class="cls-2" d="M145.01,377.97l-35.5.12c-7.47.03-14.64-.06-21.73-1.94-8.72-2.31-15.08-8.7-16.85-17.75-5.6-28.68,11.54-58.72,40-66.98-13.68-7.17-20.24-21.95-16.81-36.57,3.32-14.14,16.15-24.38,30.76-24.66,14.79-.29,27.97,9.63,31.73,23.57,4.02,14.9-2.29,30.03-16.29,37.53,28.73,8.48,45.51,37.98,40.39,66.48-1.64,9.14-7.85,15.67-16.57,18.11-6.1,1.7-12.3,2.07-19.14,2.1ZM119.9,237.44c-14.38,3.19-22.49,17.29-19.49,30.66,3.12,13.93,16.97,22.6,30.63,19.56,13.77-3.06,22.54-16.65,19.68-30.28-2.92-13.91-16.28-23.16-30.82-19.94ZM145.66,371.45c13.46-.04,26.55-1.86,28.71-15.45,2.99-18.82-4.3-37.91-19.18-49.72-19.64-15.59-47.2-13.3-64.29,4.95-11.37,12.14-16.54,28.93-13.65,45.41,2.56,14.57,17.91,14.97,31.6,14.92l36.81-.11Z"/><path class="cls-2" d="M373.14,377.37l-35.5.08c-7.3.02-14.29-.03-21.24-1.65-9.47-2.2-16.29-8.96-18-18.7-5.04-28.6,11.83-57.97,40.14-66.32-18.57-9.75-23.16-33.08-10.79-48.89,12.49-15.98,36.71-16.43,49.8-1.2,13.4,15.59,9.55,39.5-9.45,49.95,28.2,8.74,44.85,36.4,40.39,66.08-3.83,17.64-17.98,20.61-35.35,20.65ZM347.42,236.83c-14.32,3.29-22.35,17.38-19.39,30.57,3.16,14.05,17.04,22.65,30.58,19.64,13.96-3.1,22.67-16.75,19.74-30.47-2.95-13.79-16.5-23.06-30.92-19.75ZM373.14,370.84c13.1-.03,26.39-1.76,28.72-14.77,3.12-17.44-2.87-35.32-15.64-47.49-17.45-16.64-43.91-17.85-62.67-2.63-14.73,11.95-21.87,31.16-18.7,49.86,2.55,15.01,18.21,15.12,32.14,15.1l36.15-.07Z"/></g></svg>