<?xml version="1.0" encoding="UTF-8"?><svg id="Layer_2" xmlns="http://www.w3.org/2000/svg" viewBox="0 0 479.08 513.19"><defs><style>.cls-1{fill:#d54b94;}.cls-2{fill:#fff;}</style></defs><g id="Layer_2-2"><rect class="cls-1" x="-17.05" y="17.05" width="513.19" height="479.08" rx="156.5" ry="156.5" transform="translate(-17.05 496.13) rotate(-90)"/><path class="cls-2" d="M257.35,418.88c3.28,1.9,6.41.98,8.11-1.54,1.94-2.87.99-6.48-2.15-8.29l-27.98-16.18c-2.03-1.17-3.39-2.26-2.81-4.78.33-1.46,2.93-3.22,4.78-2.22l42.22,22.71c2.67,1.44,5.62.44,6.88-1.63,1.64-2.7.96-5.39-1.65-7.29l-86.45-62.99c-2.67-1.95-3.92-4.77-3.65-7.76.24-2.69,2.13-5.6,4.92-6.75l20.75-8.52c4.39-1.8,6.11-6.88,4.84-10.62-1.54-4.56-5.94-7.13-10.65-5.91l-14.85,3.83c-15.03,3.87-27.77,12.32-39.03,22.85s-25.15,13.26-38.97,8.03l-80.59-30.48c-2.1-.79-2.82-3.19-1.91-5.03.75-1.51,2.79-2.33,4.89-1.53l80.08,30.3c10.84,4.1,21.91,1.7,30.6-5.73l10.93-9.35.03-27.21-10.41,8.06c-4.57,3.54-11.7,5.21-17.75,3.65l-96.15-24.84c-1.97-.51-2.87-2.75-2.56-4.32s2.3-3.16,4.44-2.61l95.09,24.61c5.08,1.31,10.06-.05,13.94-3.17l13.41-10.77v-8s-29.86-1.2-29.86-1.2c-.87-.04-2.49-.97-2.97-1.65s-.55-2.8-.09-3.6l34.94-61.11,14.78-.04c-9.24-14.27-6.97-33.11,5.31-44.69,12.34-11.65,30.71-9.93,41.5,3.22,10.56-12.9,28.46-14.84,40.78-3.87,12.71,11.33,15.63,30.15,6.06,45.36h100.49s40.35,59.19,40.35,59.19c.69,1.01.77,3.38.21,4.2s-2.46,1.53-3.77,1.58l-34.46,1.13.05,125.58c0,9.58-6.58,17.48-16.52,17.49l-68.18.07c-1.59,4.39-4.48,7.43-7.93,8.64-4.56,1.59-8.7.46-12.71-2.09.02,4.79-2.01,8.68-5.36,11.03-3.54,2.47-8.6,3.49-12.7,1.35l-6.2-3.23c-1.07,7.5-8.15,11.56-15.16,9.54l-8.04-3.86c-.95,3.5-2.8,6.78-5.7,8.33-3.36,1.79-7.78,2.55-11.27.6l-19.62-11.02-53.63-26.79-94.92-38.41c-1.83-.74-2.61-2.76-2.15-4.48.35-1.32,2.71-3.02,4.6-2.25l95.99,38.82,52.21,26.05,20.6,11.61c1.76.99,4.81-.1,5.84-1.54s.71-4.97-1.03-6.04l-4.63-2.85c-1.54-.95-2.49-3.06-1.99-4.46.85-2.38,3.55-2.99,5.57-1.83l19.63,11.24c1.71.98,4.83-.23,5.72-1.44,1.16-1.59,1-5.13-.97-6.3l-18.84-11.17c-1.55-.92-2.27-3.18-1.67-4.47.83-1.79,3.25-2.89,5.14-1.8l32.26,18.65ZM262.25,155.67c-7.32-4.78-15.89-4.01-22.52.75-5.81,4.18-7.42,8.81-10.05,9.11-3.59.41-4.86-5.91-12.92-10.45s-16.79-3.15-23.44,2.76c-11.83,10.53-12.3,28.36-1.83,40.03l75.54-.02c11.55-12.53,9.86-32.63-4.77-42.18ZM236.52,261.1l29.71-56.12h-94.32s-29.83,52.31-29.83,52.31l94.45,3.81ZM407.32,255.8l-34.52-50.83-94.57.02,28.07,54.18,101.02-3.37ZM210.53,290.81c8.82-3.25,17.96.8,21.18,9.1,3.03,7.82-.58,17.13-8.87,20.49-7.22,2.98-14.07,5.47-21.7,9.37l67.58,49.28-.06-162.72-26.93,50.26c-.61,1.14-2.53,1.83-3.85,1.73l-65.05-2.64.03,39.42c11.79-7.46,24.03-11.49,37.68-14.28ZM371.84,389.83v-125.69s-68.21,2.22-68.21,2.22c-1.11-.17-2.64-1.64-3.15-2.68l-24.56-47.13-.05,167.69,13.76,10.05c1.64,1.2,2.92,3.26,4.15,5.58l69.57-.1c5.17,0,8.49-4.93,8.49-9.94Z"/><path class="cls-2" d="M363.48,148.21c-8.68,12.28-22.35,22.44-35.7,30.03-13.73-7.74-28.06-18.34-36.6-31.28-7.13-11.22-5.61-25.68,3.85-34.98,9.42-9.27,23.95-8.59,32.62,1.48,9.4-10.49,24.6-10.72,33.91-.36s9.61,24.18,1.93,35.11ZM353.21,115.34c-5.09-3.71-11.59-3.61-16.48-.22-2.46,1.7-4.49,4.03-6.52,6.31-1.57,1.77-4.31,1.24-5.67-.66-3.12-4.35-7.59-7.86-13.19-8.14-6.23-.31-11.67,3.54-14.65,8.74s-3.44,10.74-2.08,16.43c6.1,13.88,20.22,23.89,33.11,32.18,11.01-6.8,20.61-14.2,28.5-23.97,7.74-9.6,7.37-23.12-3-30.68Z"/><path class="cls-2" d="M264.3,95.91c-5.62,7.27-12.73,12.36-20.7,16.75-7.78-4.05-14.42-9.18-19.98-15.67s-6.41-16.15-.91-23,14.42-7.49,20.85-1.79c5.69-5.01,13.65-5.09,19.13-.02,6.69,6.19,7.43,16.2,1.6,23.74ZM253.8,75.64c-5.38-.69-7.22,5.84-10.47,5.55-.93-.08-2.61-1.24-3.17-2.05-2.73-3.93-7.54-4.79-10.94-1.58-9.35,8.86,3.62,20.2,14.34,26.94,9.01-6.08,19.99-14.06,16.92-23.04-.78-2.28-2.96-5.35-6.69-5.82Z"/></g></svg>