<?xml version="1.0" encoding="UTF-8"?><svg id="Layer_2" xmlns="http://www.w3.org/2000/svg" viewBox="0 0 479.08 513.19"><defs><style>.cls-1{fill:#fff;}.cls-2{fill:#09b3b9;}</style></defs><g id="Layer_2-2"><rect class="cls-2" x="-17.05" y="17.05" width="513.19" height="479.08" rx="156.5" ry="156.5" transform="translate(-17.05 496.13) rotate(-90)"/><path class="cls-1" d="M397.96,301.13l.2,3.33-37.59,109.54c-3.1,9.33-11.56,14.05-21.49,12.65l-103.04-35.24c-2.36-.81-3.07-3.43-2.51-5.16.71-2.23,2.97-3.32,5.45-2.47l100,34.23c6.09,2.08,12.01-.66,13.91-6.83l8.22-23.88-27.68-58.19-79.66,19.54c-2.46.6-4.65-1.56-4.83-3.51-.2-2.2,1.14-3.98,3.54-4.56l78.63-19.27c4.96-.79,8.51,1.69,10.51,5.88l23.32,48.81,23.9-69.3c2.11-6.12-.31-11.95-6.65-14.12l-165.48-56.61c-5.41-1.85-11.02,1.26-12.77,6.33l-8.49,24.63c-.9,2.62-2.86,4.06-5.84,2.98-1.7-.62-2.79-3.14-2.01-5.34l9.21-26.23c2.85-8.13,13.09-13.27,21.76-10.3l166.04,56.76c7.88,2.35,12.24,8.78,13.37,16.34Z"/><path class="cls-1" d="M345.95,134.56c9.37-2.66,19.85,2.76,20.81,12.81l6.09,63.93c.1,1-.69,2.91-1.36,3.46-.76.62-2.71,1.04-3.9.83-16.61-3.01-33.17,7.15-31.74,19.57.45,3.93,3,8,7.02,10.54,11.08,7.02,26.09,5.91,36.09-2.87,3.03-2.66,5.96-7.02,5.56-11.37l-9.94-107.13c-.42-4.57-5.15-7.85-9.53-6.7l-94.57,24.86c-4.05,1.06-6.27,4.72-5.89,8.77l7.44,80.18c.19,2.04-2.08,3.83-3.57,3.99-2.09.22-4.35-1.19-4.57-3.63l-7.47-80.75c-.68-7.36,4.46-14.43,11.62-16.31l96.28-25.18c8.38-2.19,17.49,5.05,18.25,13.29l10.05,108.66c.63,6.83-3.69,13.49-8.59,17.72-12.77,11.01-31.88,12.19-45.83,3.17-6.01-3.89-9.63-9.99-10.39-16.01-2.24-17.66,17.01-30.82,36.42-29.5l-5.32-57.66c-.43-4.71-5.06-8.42-9.79-7.08l-59.41,16.82c-3.74,1.06-5.9,4.73-5.56,8.4l3.04,33.11c.17,1.83-1.73,3.59-3.2,3.89s-4.63-.7-4.81-2.62l-3.17-33.86c-.73-7.82,4.26-14.7,11.79-16.84l58.16-16.52Z"/><path class="cls-1" d="M173.33,149.77l-5.41-28.19-73.96,14.28c-8.53,1.65-12.29,9.98-10.77,17.89l26.52,137.24c.44,2.26-1.38,4.22-2.96,4.56-2.19.48-4.59-.58-5.1-3.2l-26.94-139.57c-1.13-11.96,5.83-22.01,17.33-24.9l80.13-15.41,62.81,42.43,10.12,52.39c.11,2.35-1.13,4.11-3.09,4.6-1.66.42-4.42-.6-4.83-2.72l-9.1-46.9-29.54,5.68c-11.96,1.32-22.77-6.09-25.21-18.18ZM199.69,159.46l20.94-4.14-43.46-29.36,4.13,22.18c1.77,8.34,9.81,13.48,18.4,11.31Z"/><path class="cls-1" d="M151.23,283.22c38.57-4.74,72.81,22.88,77.09,60.6,4.26,37.52-22.7,71.68-60.45,76.15-37.6,4.45-71.94-22.2-76.67-59.91-4.66-37.2,21.71-72.14,60.03-76.85ZM152.56,291.26c-33.97,4.06-57.42,34.93-53.24,67.93,4.17,32.89,34.28,56.51,67.22,52.75,33.41-3.81,57.5-33.96,53.65-67.31-3.79-32.86-33.75-57.42-67.63-53.37Z"/><path class="cls-1" d="M244.53,255.57c12.72-1.83,23.52,6.92,25.26,18.63,1.82,12.23-6.54,23.33-18.44,25.24s-23.31-6.18-25.45-17.9c-2.22-12.17,5.77-24.12,18.63-25.98ZM245.9,263.61c-8.25,1.14-13.26,8.61-12.05,16.1,1.2,7.44,8.24,12.8,15.72,11.75s13.14-7.95,12.19-15.68c-.91-7.34-7.6-13.32-15.85-12.18Z"/><path class="cls-1" d="M114.26,213.02c-2.75.53-4.64-1.11-5.02-2.8-.54-2.46.67-4.67,3.36-5.18l90.03-17.31c2.47-.48,4.41,1.12,4.83,3.04s-.59,4.44-2.98,4.9l-90.22,17.35Z"/><path class="cls-1" d="M119.73,240.85c-2.82.54-4.69-1.04-5.11-2.93-.54-2.42.82-4.56,3.48-5.07l68.53-13.17c2.1-.4,4.01.92,4.7,2.6.62,1.5-.08,4.78-2.32,5.21l-69.28,13.35Z"/><path class="cls-1" d="M168.78,260.27l-43.94,8.47c-2.44.47-4.48-1.07-4.88-3.12-.37-1.93.74-4.38,3.1-4.84l43.68-8.41c2.38-.46,4.39.6,5.12,2.74.56,1.64-.37,4.63-3.09,5.15Z"/><path class="cls-1" d="M201.78,360.75l-54.96,31.74c-3.66,2.12-7.5,2.37-11.33.36-2.69-1.41-5.74-4.75-5.74-8.82v-64.64c0-3.52,2.67-6.7,5.04-8.17,2.9-1.79,7.34-2.72,10.6-.85l54.8,31.53c3.33,1.92,5.53,5.07,5.87,8.28.38,3.56-.51,8.37-4.28,10.56ZM196.5,354.41c.8-.72,1.66-2.13,1.58-2.93-.07-.67-1.05-1.93-1.74-2.33l-54.01-31.12c-1.64-.95-4.46.1-4.46,2.07l-.02,63.23c0,.64.8,2.37,1.43,2.38l2.79.06,54.43-31.36Z"/></g></svg>