<?xml version="1.0" encoding="UTF-8"?><svg id="Layer_2" xmlns="http://www.w3.org/2000/svg" viewBox="0 0 479.08 513.19"><defs><style>.cls-1{fill:#3cc674;}.cls-2{fill:#fff;}</style></defs><g id="Layer_2-2"><rect class="cls-1" x="-17.05" y="17.05" width="513.19" height="479.08" rx="156.5" ry="156.5" transform="translate(-17.05 496.13) rotate(-90)"/><g id="WJgfrx.tif"><path class="cls-2" d="M236.97,367.09l-10.28,61.67c-1.29,7.75-9.69,12.13-16.93,11.24-6.48-.79-14.05-6.75-13.79-14.77l3.6-108.47-.09-28.39c-.02-6.08-3.23-11.46-8.83-13.71l-6.54-2.63c0,4.85-1.01,8.46-3.94,11.26-2.78,2.65-7.25,4.83-11.35,3.67l-11.44-3.26,11.1,91.56c.86,7.13-6,12.58-11.31,13.23-7.22.87-13.25-3.68-14.61-10.96l-10.58-56.46-8.42,60.12c-1.05,7.53-8.03,12.07-14.92,11.69-6.61-.36-13.3-5.56-13.43-13.36l-1.34-80.18c-7.54-1.07-13.99-7-15.28-15.39-3.78-24.66-1.01-50.19,6.82-73.93,1.15-3.5,1.09-5.04,0-8.51-4.02-12.81,10.32-26.67,21.3-35-4.99-9.13-6.8-19.41-3.28-29.01,2.85-7.79,8.87-13.75,15.76-15.72,16.64-4.76,30.1,6.64,35.02,23.72,20.88-7.52,41.81-11.72,64.28-13.01-10.83-11.83-12.9-29.29-4.57-42.88,4.99-8.14,13.83-12.81,22.97-12.5s17.29,5.76,21.72,14.16c7.15,13.55,4.84,29.57-5.48,41.22,23.2,1.2,44.59,5.26,65.88,12.96,2.61-10.01,8.66-19.15,18.07-22.91,13.29-5.3,27.08.98,32.1,14.04,3.79,9.85,2.29,20.38-2.76,29.86,12.76,10.01,27.49,23.74,19.75,38.97,8.66,24.97,12.25,51.57,8.59,77.8-1.19,8.53-7.37,14.87-15.57,16.13l-1.12,80.23c-.11,7.57-7.05,12.84-13.32,13.34-7.32.58-14.17-4.5-15.25-12.11l-8.36-58.82-10.47,55.53c-1.38,7.32-7.21,11.84-14.46,11.01-5.9-.68-12.48-6.37-11.57-13.84l11.05-91.02c-8.55,3.18-16.83,5.66-22.67-.17-2.89-2.89-4.07-6.66-4.13-11.4-7.55,2.26-14.87,6.85-15.06,14.71-.51,21.55-.59,42.21.67,63.81l4.29,73.46c.5,8.61-6.62,15.39-14.2,16.01-8.26.68-15.34-4.96-16.86-13.39l-10.75-59.6ZM247.46,127.35c9.56-9.48,10.46-24.45,3.09-35.3-3.54-5.21-9.15-7.87-15.01-7.78s-10.85,2.75-14.5,7.69c-7.89,10.68-6.39,25.96,2.98,35.36,6.55,6.57,16.49,6.94,23.45.03ZM145.92,165.53c4.79-11.81,1.07-25.84-8.44-33.74-7.55-6.26-17.82-5.29-23.83,2.09-9.68,11.9-3.89,30.98,8.81,39.26,4.27,2.78,9.1,3.63,14,1.98,3.68-1.24,7.44-4.62,9.46-9.59ZM363.04,155.46c2.07-7.1,1.25-14.34-2.87-20.42-5.9-8.72-17.31-9.84-25.33-2.7-9.1,8.11-12.31,21.79-7.77,33.2,2.03,5.1,6.14,8.52,10.45,9.75,11.5,3.27,21.77-6.97,25.52-19.82ZM214.19,198.53c4.76-7.72,12.57-12.11,20.61-12.44,8.55-.35,16.63,3.33,21.83,10.55,9.61,13.35,8.39,31.84-3.14,44.27,22.08.19,43.29-3.49,63.26-12.04v-18c.37-7.22-3.41-12.23-9.31-15.96-9.85-6.23-20.45-10.07-32.36-13.55-.09,16.66.5,31.94,1.32,48.1.1,2.04-2.04,3.71-3.8,3.56-1.19-.1-3.09-1.8-3.18-3.35-1.08-18.86-2.13-37.08-1.15-55.81.42-8.15,6.28-14.1,14.54-13.73,12.25.55,24.31,2.85,36.44,6.25-.84-4.47-1.38-8.91-1.61-13.79-26.83-10.1-54.69-13.65-83.37-13.52-27.25.13-53.65,4.15-78.97,13.6-.07,4.84-.61,9.22-1.78,13.83,11.9-3.33,23.93-5.69,36.22-6.39,8.33-.48,14.65,5.14,14.98,13.46.76,18.71.18,37.03-.89,55.85-.12,2.18-2.26,3.81-3.92,3.61-2.04-.25-3.32-2.11-3.18-4.35.96-15.95,1.42-30.85,1.31-47.37-14.55,4.59-41.34,12.81-41.49,27.01l-.22,20.55c19.9,8.51,39.94,11.91,62.1,12.1-10.74-11.97-12.66-28.84-4.26-42.44ZM172.37,268.3c-15.67-6.01-29.69-12.01-41.87-23.06-5.31-4.81-6.68-11.5-4.1-18.08-3.85-8.37-11.53-20.7-5.46-21.92,1.1-.22,3.45.66,3.93,1.71l7.03,15.19c4.47-1.62,8.57-1.23,12.64.92l4.57,2.42c.46-15.87-2.41-25.97,11.17-35.39,11.26-7.81,24.05-12.34,37.11-16.09.34-4.17-2.76-7.12-6.83-6.87-14.7.91-28.78,4.39-42.7,8.74-7.29,8.33-18.82,9.51-28.39,3.91l-5.4,10.37c.85,7.17-1.57,14.06-7.49,18.19-4.08,2.85-8.89,3.63-13.76,1.88-7.84,22.67-10.69,46.81-7.78,70.62.65,5.33,3.61,9.55,8.96,11.12l.59-18.94c.45-14.6,1.6-28.43,3.81-42.89.17-1.1,2.07-2.83,3.09-2.9s3.05,1.09,3.56,2.14c12.97,27.07,35.33,43.73,64.53,50.38,3.48.79,6.48-1.77,7.07-4.83.5-2.58-1.09-5.4-4.29-6.63ZM303.43,279.75c14.96-3.25,28.26-9.57,39.93-18.73,10.93-8.57,18.56-19.51,24.72-31.91.52-1.05,2.68-2.12,3.69-1.91s2.74,1.96,2.92,3.2c3.12,20.46,3.91,40.34,4.25,61.51,4.72-.79,8.27-4.95,8.89-10.11,2.92-24.07.33-48.43-7.74-71.36-4.75,1.24-8.7.85-12.37-1.37-6.64-4.02-9.92-11.32-8.8-19.1l-5.48-10.03c-9.98,5.67-21.08,3.93-28.38-4.13-12.32-3.78-43.43-12.22-48.02-6.63-.79.96-1.26,3.33-1.25,4.88,13.63,3.73,26.31,8.52,37.75,16.34,6.5,4.44,10.19,11.04,10.24,18.79l.09,16.16,7.14-3.5c2.74-1.34,6.85-.79,10.1.24l7.34-15.8c.59-1.28,4.07-1.28,4.88-.33.71.84,1.37,3.26.87,4.39l-7.66,17.33c3.09,7,.51,13.73-5.21,18.58-11.89,10.12-26.05,16.63-40.79,21.97-3.05,1.11-4.75,4.15-4.21,6.8.52,2.52,3.25,5.55,7.07,4.72ZM101.38,203.15c5.65-3.22,5.63-7.9,5.74-13.34.15-7.28,11.14-14.02,2.83-17.04-4.32,3.78-8.64,7.75-12.43,11.98-5.61,6.26-8.07,15.63-2.46,18.71,1.37.75,4.69.62,6.32-.31ZM373.03,203.64c1.77.72,5.36-.06,6.43-1.26,3.62-4.07.73-12.21-3.37-16.99s-8.33-8.61-13.31-12.93l-3.31,3.38,4.99,9.22c3.08,5.69-.89,14.76,8.56,18.58ZM249.04,234.78c8.55-9.73,8.9-24.19,1.35-34.29-3.52-4.7-8.84-7.23-14.12-7.33-5.62-.11-10.7,2.3-14.41,7.03-8.5,10.84-7.4,26.91,2.84,36.25,7.23,6.6,17.68,5.92,24.34-1.66ZM267.53,353.46c-1.32-22.43-1.25-43.23-.89-65.08.17-10.05,5.99-18.16,15.76-21.38,13.98-4.61,27.65-9.36,40.57-16.65,9.03-5.09,22.29-13.78,16.41-20.53-1.43-1.64-4.8-2.16-7.07-.91-31,17.07-54.97,19.18-89.13,19.16h-12.96c-17.06-.02-33.43-.41-50.07-4.1-14.23-3.16-27.07-8.16-39.82-15.2-1.55-.86-4.45-.62-5.65.12-1.33.82-2.74,3.58-2.49,5.37.33,2.36,1.85,4.96,3.59,6.42,15.69,13.11,35.18,19.93,54.6,26.1,9.57,3.04,15.98,10.84,16.14,21.05.34,21.91.16,43.11-.71,65.2l-2.81,71.64c-.17,4.44,4.24,7.74,7.6,8.23s8.46-1.5,9.16-5.76l13.22-81.06c.33-2.02,2.33-3.59,4.09-3.44,1.4.12,3.32,2.18,3.66,4.1l14.12,79.24c.85,4.78,5.42,7.56,9.64,6.94,3.72-.54,7.48-4.3,7.21-8.89l-4.16-70.59ZM135.14,298.48l14.5,78.38c.66,3.56,4.45,5.24,7.38,4.48,2.5-.65,4.26-3.5,4.47-6.58l-3.86-30.78-7.65-63.04c-19.36-7.89-35.17-20.71-46.12-38.85-2.21,22.26-2.71,43.95-2.84,66.49l1.22,71.01c1.43,3.9,4.21,6.42,8.07,6.07,2.94-.26,5.95-2.78,6.46-6.54l11.03-80.72c.27-1.95,2-3.76,3.44-3.81,1.85-.05,3.44,1.36,3.9,3.87ZM345.18,298.56l11.22,80.85c.57,4.12,4.53,6.41,7.28,6.32s7.17-2.57,7.2-6.36l.78-98.96c-.54-13.11-1.17-25.1-2.57-38.25-10.72,17.99-26.76,30.95-46.05,38.87l-11.43,94.38c-.39,3.22,3.43,5.92,5.5,6.11,2.43.22,5.94-1.44,6.52-4.64l14.35-79.24c.36-1.97,2.45-3.28,4.06-3.01,1.11.19,2.85,1.9,3.13,3.92Z"/></g></g></svg>