<?xml version="1.0" encoding="UTF-8"?><svg id="Layer_2" xmlns="http://www.w3.org/2000/svg" viewBox="0 0 479.08 513.19"><defs><style>.cls-1{fill:#fff;}.cls-2{fill:#4a2562;}</style></defs><g id="Layer_2-2"><rect class="cls-2" x="-17.05" y="17.05" width="513.19" height="479.08" rx="156.5" ry="156.5" transform="translate(-17.05 496.13) rotate(-90)"/><g id="_6YXcw5.tif"><path class="cls-1" d="M111.81,408.18c-11.19,2.12-35.22,4.64-35.02-1.54.03-1.07,1.18-3.18,2.23-3.74,10.84-5.84,17.34-15.57,19.33-27.67,3.53-21.3,15.62-32.54,37.72-33.41l51.48-68.28c16.59-22,34.85-41.89,53.63-62.08l81.41-87.53c11.91-12.8,23.87-24.46,36.59-36.26,6.61-6.14,15.74-11.77,21.72-6.79,6.88,5.73,1.85,16.87-4.15,25.25-18.19,25.4-37.16,49.58-57.3,73.64l-64.52,77.04c-30.75,36.72-64.59,69.89-100.21,101.83,1.38,27.41-17.42,43.77-42.89,49.55ZM204.22,301.29c15.86-16.42,30.62-32.24,45.23-49.23,33.56-39.05,66.06-78.29,97.85-118.72,9.04-11.49,17.36-22.6,25.42-34.53,2.62-3.87,4.35-7.83,4.04-12.84-3.74.4-7.06,2.04-9.89,4.58-12.2,10.91-23.59,21.85-34.83,33.99l-99.49,107.41-45.54,53.62,17.21,15.73ZM193.89,311.63l5.3-5.32-16.46-15.08-4.61,6.18,15.77,14.22ZM151.83,351.87l37.07-35.15-15.38-13.59-30.5,41.01,8.81,7.73ZM124.6,396.33c15.67-7.03,24.66-21.93,22.8-38.64l-9.46-8.67c-11.25-.86-21.91,3.84-28.33,13.29-5.84,15.13-4.34,28.14-18.4,40.68,11.78.07,22.64-1.84,33.39-6.66Z"/><path class="cls-1" d="M211.63,335.56c.04-11.74-4.95-17.9.01-19.76s7.17,10.08,7.14,18.5l-.2,66.21c-.04,13.71-8.57,24.52-20.92,28.71-7.61,2.58-14.88,4.11-22.75,5.66-2.91.57-5.89,1.43-7.67,3.84h112.83c-2.38-2.66-5.72-3.35-9.17-4.04-8.93-1.77-17.52-3.46-25.8-7.5-10.15-4.95-16.45-15.71-16.43-27.44l.16-69.37c.03-15.15,7.92-27.84,20.01-35.91l19.94-13.32c11.66-7.79,21.51-17.57,28.31-29.88,7.07-12.81,9.29-26.88,8.86-41.53-.05-1.77,1.35-3.92,2.64-4.2,2.08-.45,4.3,1.12,4.4,3.38,1.25,27.03-6.64,48.4-26.14,66.89-16.14,15.3-35.59,22.39-44.17,34.28-4.72,6.54-6.9,14.73-6.9,23v67.08c0,10.62,6.82,19.29,16.42,22.43,8.11,2.64,15.92,4.04,24.07,5.82,10.12,2.22,14.39,12.1,11.62,16.19-.44.66-2.14,1.22-3.29,1.22l-121.91.02c-1.01,0-2.79-.71-3.2-1.36-2.81-4.37,1.79-14.21,12.71-16.4,7.82-1.57,15.18-2.99,22.88-5.51,9.43-3.09,16.3-11.45,16.33-21.98l.21-65.06Z"/><path class="cls-1" d="M237.07,196.18c1.9.08,3.55,1.85,3.58,3.48.12,7.88-20.31,1.2-30.71-3.27-23.73-10.21-43.36-11.61-67.21.13-5.56,30.57,3.77,59.87,28.48,79,1.46,1.13,1.97,3.89,1.24,5.09-1.1,1.82-3.76,2.35-5.55.91-12.41-9.95-21.97-22.19-27.62-37.08-5.62-15.76-6.49-31.62-3.9-48.36,4.85-31.29,14.51-61.4,27.08-90.83l121.7-.03c5.15,10.47,9.15,20.67,12.96,31.81.4,1.17-1.3,3.86-2.43,4.05-1.22.2-3.2-.66-4.24-1.72l-10.68-27.01h-112.45c-10.36,24.57-18.08,49.37-23.32,75.84,16.43-7.56,33.84-8.97,51.14-4.57,8.01,2.49,15.44,5.28,23.15,8.46,6.13,2.42,12.02,3.85,18.78,4.13Z"/><path class="cls-1" d="M180.66,259.21c1.45,1.25,1.35,4.02.45,5.05-1.17,1.33-3.73,1.58-5.32.22-14.46-12.37-22.85-29.87-23.22-49.08-.03-1.47,2.05-3.31,3.2-3.48,1.21-.18,3.71,1.16,3.75,2.66.52,17.42,7.8,33.15,21.14,44.64Z"/><path class="cls-1" d="M131.62,361.55c-14.51,3.93-11.83,18.32-17.67,16.98-1.71-.39-3.54-2.59-3.04-4.33,4.66-16.6,21.34-23.41,23.38-17.56.67,1.93-.58,4.35-2.67,4.91Z"/></g></g></svg>